# xmcd CD database file
#
# Track frame offsets:
#	150
#	10340
#	24041
#	37482
#	48604
#	61585
#	76809
#	89059
#	102467
#	112214
#	124028
#	134596
#	145131
#	158785
#	168891
#	183626
#	195009
#
# Disc length: 2824 seconds
#
# Revision: 0
# Processed by: cddbd v1.5.2PL0 Copyright (c) Steve Scherf et al.
# Submitted via: CDex 1.81
#
DISCID=e60b0611
DTITLE=Max and Jenine Bacon - The Bacon's Country Collection
DYEAR=2011
DGENRE=Country
TTITLE0=Hello Mary Lou
TTITLE1=Company's Comin'
TTITLE2=Too Old to Die Young
TTITLE3=Oh Baby Mine
TTITLE4=Forty Miles from Poplar Bluff
TTITLE5=When You and I were Young Maggie
TTITLE6=You can Depend on Me
TTITLE7=Home on the Range
TTITLE8=The Crawdad Song
TTITLE9=Amarillo by  Morning
TTITLE10=Cottonfields
TTITLE11=Wabash Cannonball
TTITLE12=If the World had a Front Porch
TTITLE13=Oh Susanna
TTITLE14=My Old Kentucky Home
TTITLE15=Thank God for Kids
TTITLE16=Oh What a Savior
EXTD=YEAR: 2011
EXTT0=
EXTT1=
EXTT2=
EXTT3=
EXTT4=
EXTT5=
EXTT6=
EXTT7=
EXTT8=
EXTT9=
EXTT10=
EXTT11=
EXTT12=
EXTT13=
EXTT14=
EXTT15=
EXTT16=
PLAYORDER=
